<svg width="64.367" height="64.367" viewBox="0 0 1300 1300" fill="none" xmlns="http://www.w3.org/2000/svg"><mask id="a" style="mask-type:alpha" maskUnits="userSpaceOnUse" x="0" y="0" width="1301" height="1300"><path d="M650 1299.5C290.986 1299.5.5 1008.58.5 650 .5 290.986 291.417.5 650 .5c359.01 0 649.5 290.917 649.5 649.5.43 359.01-290.49 649.5-649.5 649.5Z" fill="#F7C0B5" stroke="#000"/></mask><g mask="url(#a)"><path d="M1014 1197.33c-3.03 2.17-6.5 4.33-9.53 6.5-3.47 2.17-6.503 4.33-9.97 6.07-3.033 1.73-5.633 3.46-8.667 5.2-.433.43-.866.43-1.3.86-9.966 6.07-20.366 11.7-30.766 16.9a96 96 0 0 1-9.534 4.77s-.433.43-.866.43c-3.467 1.74-6.934 3.47-10.4 5.2-6.934 3.47-14.3 6.5-21.234 9.54-3.466 1.73-7.366 3.03-10.833 4.33s-7.367 3.03-10.833 4.33-7.367 3.04-10.834 4.34h-.433c-3.467 1.3-7.367 2.6-10.833 3.9-7.8 2.6-16.034 5.2-23.834 7.8-2.6.86-5.633 1.73-8.233 2.6a262 262 0 0 1-24.7 6.5c-3.033.86-6.067 1.3-9.533 2.16-7.8 1.74-16.034 3.47-23.834 5.2-1.733.44-3.033.44-4.766.87-2.6.43-5.634.87-8.234 1.3-3.9.43-7.366 1.3-11.266 1.73-1.734.44-3.467.44-5.2.87-2.167.43-4.767.87-7.367.87-6.933.86-14.3 1.73-21.233 2.6-2.167.43-4.767.43-6.934.86h-.433c-3.033.44-6.067.44-9.1.87s-6.067.43-9.1.43c-1.733 0-3.9.44-5.633.44-3.467 0-6.5.43-9.534.43-4.333 0-8.233.43-12.566.43H644.8c-182.433-2.6-347.1-80.16-464.1-203.23 0 0 0-.43-.433-.43 13.433-26.44 63.267-74.1 115.267-113.535 65.866-49.834 159.033-80.6 159.033-80.6s61.1-9.967 287.733 37.266c172.9 36.4 246.567 184.169 271.7 252.199" fill="#F7D3B5"/><path d="M790.4 1065.16c-9.1 44.64-68.033 71.07-167.266 31.2-121.767-49.4-168.567-188.496-168.567-188.496-6.5-99.666-21.667-185.033-21.667-185.033 140.834-12.133 307.233 152.533 307.233 152.533l19.067 81.467c1.734 6.933 5.2 13 10.4 17.333 9.1 15.6 26.867 62.396 20.8 90.996" fill="#F7D3B5"/><path d="M769.6 974.598c-82.767-4.334-143.867-16.467-209.3-133.9 55.467 48.966 120.9 67.6 189.8 76.266l9.1 39.867c1.733 7.367 5.2 13.433 10.4 17.767" fill="#EFBDA5"/><path d="M940.767 452.431c7.8 36.4 11.7 65.867-9.534 162.934-21.233 97.066 19.5 194.133-82.766 282.966-68.9 59.8-189.367 71.067-285.567 5.634-32.5-22.1-62.4-52.867-86.666-93.167-19.067-31.633-41.167-61.533-65.867-88.833-34.233-37.267-75.4-112.234-55.033-244.834C388.267 261.332 601.9 236.632 728 260.465s191.533 95.766 212.767 191.966" fill="#F7D3B5"/><path d="M526.067 621.865s-13.433-65-76.7-57.2c-54.6 6.933-73.667 137.8 50.267 174.2" fill="#F7D3B5"/><path d="M495.734 679.498s-15.6-9.967-13.867-27.3c2.6-20.367 0-32.933-9.533-36.833-23.834-9.967-28.6 17.766-27.734 21.233" stroke="#423232" stroke-width="13.479" stroke-miterlimit="10" stroke-linecap="round" stroke-linejoin="round"/><path d="M826.367 721.531s16.466.867 32.066-17.766c8.667-10.4 16.034-23.4 11.267-27.3-4.767-4.334-83.2 7.8-88.4 18.2s25.133 26.866 45.067 26.866" fill="#EFBDA5"/><path d="M839.367 575.932s.866 41.166 27.3 87.099c11.7 20.367-6.067 53.734-44.634 59.367" stroke="#423232" stroke-width="13.479" stroke-miterlimit="10" stroke-linecap="round" stroke-linejoin="round"/><path opacity=".42" d="M604.5 743.631c24.651 0 44.634-16.491 44.634-36.833 0-20.343-19.983-36.833-44.634-36.833-24.65 0-44.633 16.49-44.633 36.833 0 20.342 19.983 36.833 44.633 36.833m319.8-72.8c-1.3 24.267-.867 48.1-2.6 71.933-19.067-4.333-32.933-18.633-32.933-35.533 0-18.2 15.166-32.933 35.533-36.4" fill="#ED938A"/><path d="M1057.78 1116.61c-61.53-79.3-156.863-112.24-209.297-131.737-4.333-21.667-12.566-45.5-25.566-68.467-19.934 12.133-42.9 21.233-66.733 26l3.466 14.3c1.733 6.933 10.4 39-3.033 80.164-11.267 34.67-56.767 50.27-133.9 15.17-150.367-68.034-167.7-144.734-167.7-144.734-2.6-41.6-6.933-80.6-10.833-112.233-46.8 10.4-100.967 31.633-130.434 76.266-36.4 54.6-49.833 110.067-46.366 154.271-63.267 40.3-161.2 101.4-193.267 210.6-41.6 142.13-34.667 229.23-34.667 229.23h1119.73c-1.3.43-17.76-240.93-101.4-348.83" fill="#6060D8"/><path d="M388.283 974.472s26.433 102.698 142.133 173.768M848.05 984.873s30.767 133.037-36.4 194.137m-172.466-20.37s-22.534 65.87-16.467 111.37m154.701-115.27s16.9 36.83 29.033 95.33m-539.934-224.03s35.533 144.73 247 187.2" stroke="#423232" stroke-width="13.479" stroke-miterlimit="10" stroke-linecap="round" stroke-linejoin="round"/><path d="m626.617 1279.97-19.067-1.73c-6.933-.87-12.133-7.37-10.833-14.3l6.5-32.5c1.733-9.1 10.4-15.6 19.5-14.3 9.1.87 16.467 8.67 16.467 18.2l.433 33.37c0 6.5-6.067 12.13-13 11.26m198.9-19.93-18.2 6.5c-6.933 2.6-14.3-1.73-15.6-8.67l-7.8-32.06c-2.166-9.1 2.6-18.2 11.7-21.67 8.667-3.03 18.634.87 22.534 9.1l14.3 29.9a12.4 12.4 0 0 1-6.934 16.9" fill="#fff"/><path d="M1016.62 1250.07s24.26 136.07 14.73 215.8" stroke="#544D4D" stroke-width="13.479" stroke-miterlimit="10" stroke-linecap="round" stroke-linejoin="round"/><path d="M683.943 619.439c-10.4-.433-18.2-9.1-17.334-19.5l.434-12.133c.433-10.4 9.1-18.2 19.5-17.333 10.4.433 18.2 9.1 17.333 19.5l-.433 12.133c-.434 9.967-9.1 17.767-19.5 17.333m182.433 6.5c-9.534-.434-16.9-8.667-16.467-18.2l.433-11.267c.434-9.533 8.667-16.9 18.2-16.467 9.534.434 16.9 8.667 16.467 18.2l-.433 11.267c-.434 9.533-8.667 16.9-18.2 16.467" fill="#423232"/><path d="M725.976 594.305s-11.266-16.033-30.766-19.066c-16.034-2.6-33.8 5.2-36.4 14.3m195 8.667s0-13.867 19.933-13.867c16.467 0 23.4 15.167 23.4 15.167" stroke="#423232" stroke-width="13.479" stroke-miterlimit="10" stroke-linecap="round" stroke-linejoin="round"/><path d="M743.742 524.539c9.1 3.033 18.2-5.2 16.467-15.167-.867-5.2-3.033-10.4-7.367-14.3-13-11.7-66.733-22.1-99.233-6.933-28.6 13.866 48.533 22.533 90.133 36.4m129.566 6.934c-7.367 2.6-15.167-5.2-13.867-14.3.433-4.767 2.167-9.534 5.633-13 10.4-10.4 45.934-18.634 68.467-2.6 19.5 13.433-26.433 17.333-60.233 29.9m-69.151 241.372c.449 7.188-4.942 19.768-14.826 28.754-50.77-31.001-73.683-14.827-73.683-14.827-17.972-27.406-13.928-64.697 29.653-36.392 30.551 19.32 48.972 22.465 58.856 22.465" fill="#423232"/><path d="M789.331 801.599c-10.783 9.435-26.957 15.276-48.972 6.29-10.334-4.043-18.421-12.131-24.711-21.116 0 0 22.914-16.175 73.683 14.826" fill="#FE9DAB"/><path d="M812.694 771.048s-18.87 10.333-67.393-20.667c-57.958-37.291-46.276 40.885-5.391 57.508 42.682 17.522 64.697-20.667 64.248-35.044" stroke="#423232" stroke-width="13.479" stroke-miterlimit="10" stroke-linecap="round" stroke-linejoin="round"/><path d="M715.648 786.773s22.914-16.175 73.683 14.826" stroke="#423232" stroke-width="13.479" stroke-miterlimit="10" stroke-linecap="round" stroke-linejoin="round"/><path d="M974.205 347.827c-30.766 111.366-120.033 92.733-203.666 62.4-111.367-40.734-209.3-7.8-209.733 92.733-.867 147.333-37.7 102.7-41.6 97.066-9.534-18.2-29.9-40.733-68.467-35.966-50.7 6.5-70.633 118.3 23.833 164.233 16.467 83.633-28.6 75.833-28.6 75.833-15.166-61.533-142.566-192.4-143-278.633 0-116.133 58.5-149.066 58.5-149.066 1.734-81.034 86.234-170.3 228.367-167.267 142.133 2.6 229.233-1.3 256.966-34.667 27.734-34.233 158.165 61.967 127.4 173.334" fill="#423232"/><path d="M977.672 481.727c-4.333 28.166-16.466 49.833-33.366 65.866 6.5-47.233 3.033-69.766-2.6-96.2-12.134-54.166-38.134-100.966-81.467-135.633 21.667-1.733 43.767 3.033 63.7 15.6 0-.433 71.5 28.6 53.733 150.367" fill="#423232"/><path d="M477.159 636.126s-34.667-5.2-32.067 43.333c1.3 24.7 1.3 38.134.867 45.067-.434 4.767 2.6 9.1 6.933 10.833 5.2 2.167 10.833 0 13.433-5.2 3.9-6.933 8.234-16.466 8.234-24.266 0-13 13.866-24.7 13.866-24.7s-12.566-10.834-11.266-45.067" fill="#fff"/><path d="M582.025 1471.59c-3.466-3.9-139.533-236.6-119.166-324.13 13.866-60.23-4.334-129.57-20.367-190.668-6.5-25.133-12.567-48.533-16.033-69.333-6.067-35.967-1.734-70.2 13-101.833 16.033-35.534 13.433-66.3 13.433-66.734l8.667-.866c0 1.3 2.6 33.8-14.3 71.066-13.867 29.9-17.767 62.834-12.134 97.067 3.467 20.367 9.534 43.767 16.034 68.9 16.466 61.971 34.666 132.601 20.366 195.001-19.066 83.2 116.567 315.9 117.434 316.77z" fill="#fff"/><path d="M446.393 704.592c.433 9.534 0 16.033 0 19.933-.434 4.767 2.6 9.1 6.933 10.834 5.2 2.166 10.833 0 13.433-5.2 3.9-6.934 8.234-16.467 8.234-24.267v-1.733c-9.1 3.466-19.5 6.067-28.6.433" fill="#E5E5E5"/><path d="M854.158 992.759c-3.033 19.931-3.466 51.571-4.333 88.401-1.3 71.07-43.333 347.97-63.7 391.73l-7.8-3.46c19.5-42.47 61.533-318.07 62.833-388.27.867-36.83 1.3-68.9 4.334-89.701 6.5-43.767 1.733-76.7-.867-90.567 1.3-1.3 2.6-2.167 3.9-3.467 1.3-.866 2.167-2.166 3.467-3.033 2.6 11.267 9.966 47.233 2.166 98.367" fill="#fff"/></g></svg>