<svg width="64.367" height="64.367" viewBox="0 0 1300 1300" fill="none" xmlns="http://www.w3.org/2000/svg"><mask id="a" style="mask-type:alpha" maskUnits="userSpaceOnUse" x="0" y="0" width="1300" height="1300"><path d="M650 1300C290.71 1300 0 1008.86 0 650 0 290.71 291.141 0 650 0c359.29 0 650 291.141 650 650 .43 359.29-290.71 650-650 650" fill="#F7C0B5"/></mask><g mask="url(#a)"><path d="M1013.13 1197.32c-3.03 2.16-6.5 4.33-9.53 6.5-3.47 2.16-6.5 4.33-9.967 6.06-3.033 1.74-5.633 3.47-8.667 5.2-.433.44-.866.44-1.3.87-9.966 6.07-20.366 11.7-30.766 16.9-3.034 1.73-6.5 3.47-9.534 4.77 0 0-.433.43-.866.43-3.467 1.73-6.934 3.47-10.4 5.2-6.934 3.47-14.3 6.5-21.234 9.53-3.466 1.74-7.366 3.04-10.833 4.34s-7.367 3.03-10.833 4.33-7.367 3.03-10.834 4.33h-.433c-3.467 1.3-7.367 2.6-10.833 3.9-7.8 2.6-16.034 5.2-23.834 7.8-2.6.87-5.633 1.74-8.233 2.6a259 259 0 0 1-24.7 6.5c-3.033.87-6.067 1.3-9.533 2.17-7.8 1.73-16.034 3.47-23.834 5.2-1.733.43-3.033.43-4.766.87-2.6.43-5.634.86-8.234 1.3-3.9.43-7.366 1.3-11.266 1.73-1.734.43-3.467.43-5.2.87-2.167.43-4.767.86-7.367.86-6.933.87-14.3 1.74-21.233 2.6-2.167.44-4.767.44-6.934.87h-.433c-3.033.43-6.067.43-9.1.87-3.033.43-6.067.43-9.1.43-1.733 0-3.9.43-5.633.43-3.467 0-6.5.44-9.534.44-4.333 0-8.233.43-12.566.43h-21.667c-182.433-2.6-347.1-80.17-464.1-203.23 0 0 0-.44-.433-.44 13.433-26.43 63.266-74.1 115.266-113.53 65.867-49.834 159.034-80.6 159.034-80.6s61.1-9.967 287.733 37.266c172.9 36.4 246.567 184.164 271.697 252.204" fill="#FEE4BF"/><path d="M789.533 1065.15c-9.1 44.63-68.033 71.07-167.266 31.2C500.5 1046.95 453.7 907.85 453.7 907.85c-6.5-99.667-21.667-185.034-21.667-185.034C572.867 710.683 739.267 875.35 739.267 875.35l19.066 81.466c1.734 6.934 5.2 13 10.4 17.334 9.1 15.6 26.867 62.4 20.8 91" fill="#FEE4BF"/><path d="M768.733 974.583c-82.767-4.333-143.867-16.467-209.3-133.9 55.467 48.967 120.9 67.6 189.8 76.267l9.1 39.866c1.733 7.367 5.2 13.434 10.4 17.767" fill="#EFBD9C"/><path d="M939.899 452.416c7.8 36.4 11.7 65.867-9.533 162.934s19.5 194.133-82.767 282.966c-68.9 59.8-189.366 71.067-285.566 5.634-32.5-22.1-62.4-52.867-86.667-93.167C456.3 779.15 434.2 749.25 409.5 721.95c-34.234-37.267-75.4-112.234-55.034-244.834C387.4 261.317 601.033 236.617 727.133 260.45s191.533 95.766 212.766 191.966" fill="#FEE4BF"/><path d="M525.199 621.85s-13.433-65-76.7-57.2c-54.6 6.933-73.666 137.8 50.267 174.2" fill="#FEE4BF"/><path d="M494.866 679.483s-15.6-9.967-13.866-27.3c2.6-20.367 0-32.933-9.534-36.833-23.833-9.967-28.6 17.766-27.733 21.233" stroke="#423232" stroke-width="13.479" stroke-miterlimit="10" stroke-linecap="round" stroke-linejoin="round"/><path d="M825.5 721.516s16.467.867 32.067-17.766c8.666-10.4 16.033-23.4 11.266-27.3-4.766-4.334-83.2 7.8-88.4 18.2s25.134 26.866 45.067 26.866" fill="#EFBD9C"/><path d="M838.5 575.916s.866 41.167 27.3 87.1c11.7 20.367-6.067 53.734-44.633 59.367" stroke="#423232" stroke-width="13.479" stroke-miterlimit="10" stroke-linecap="round" stroke-linejoin="round"/><path d="M906.533 816.416q0 .651 0 0-.65.651 0 0c-10.833 28.167-28.6 55.034-58.933 81.467-68.9 59.8-189.367 71.067-285.567 5.633q-16.25-11.05-31.2-24.7-10.4-12.999-18.2-27.3c-31.2-58.5-17.767-113.1-17.767-113.1s17.767.434 39 42.034c17.767 34.666 86.234 33.366 114.4-31.634 31.2-72.366 109.2-40.733 126.967-33.8 17.767 6.934 45.5 6.934 45.5 6.934 70.2-.867 48.967 46.366 56.333 72.366 10.834 35.534 29.467 22.1 29.467 22.1" fill="#423232"/><path d="M1158.82 1466.34H63.356s4.766-201.93 72.366-344.5c49.834-105.73 178.1-165.967 267.367-196.734 19.933-6.933 38.133-12.133 52.867-16.033 4.766 13 52.866 140.397 168.133 187.197 99.233 40.3 158.167 13.44 167.267-31.2 5.633-28.6-12.134-75.397-21.234-90.564-5.2-4.333-8.666-10.833-10.4-17.333l-3.466-14.3c7.8-1.734 15.166-3.9 22.966-6.067l11.7 2.6c55.9 13.433 138.667 45.933 235.738 127.834 112.23 93.6 132.16 399.1 132.16 399.1" fill="#FFDE55"/><path d="M806.956 1182.94c-15.167 4.33-68.033-50.7-78.867-60.23-9.966 11.26-80.166 90.56-114.833 85.36-38.133-5.63-135.633-71.06-185.033-173.76-27.3-56.337-28.167-90.571-25.134-109.204 1.3-8.667 3.9-14.3 5.2-17.333 4.334-9.967 35.534-48.534 43.334-48.1v.433c3.9 41.6 17.333 81.9 39.866 117 27.734 42.904 71.5 94.464 132.6 119.164 99.234 40.3 150.8.44 159.467-44.2 5.633-28.6-4.333-62.397-13.433-77.564-5.2-4.333-8.667-10.833-10.4-17.333l-3.467-14.3c7.8-1.734 15.167-3.9 22.967-6.067 2.166-.867 4.766-1.3 6.933-2.167 1.3 1.734 3.033 3.467 4.333 5.2 18.2 20.8 37.267 49.4 47.667 97.931 17.766 77.57-14.3 139.97-31.2 145.17" fill="#423232"/><path d="M726.789 1120.11s31.633 18.2 30.767 33.36c-.867 15.17 8.233 63.27 8.233 63.27" stroke="#423232" stroke-width="13.479" stroke-miterlimit="10" stroke-linecap="round" stroke-linejoin="round"/><path d="M726.357 1177.74c5.743 0 10.399-4.66 10.399-10.4s-4.656-10.4-10.399-10.4c-5.744 0-10.4 4.66-10.4 10.4s4.656 10.4 10.4 10.4m3.899 40.73c5.744 0 10.4-4.65 10.4-10.4 0-5.74-4.656-10.4-10.4-10.4s-10.4 4.66-10.4 10.4c0 5.75 4.656 10.4 10.4 10.4" fill="#423232"/><path d="m277.855 1466.34-19.5-160.77m776.105-54.6s-13 31.64-9.1 63.27 15.16 78-.87 152.1" stroke="#544D4D" stroke-width="13.479" stroke-miterlimit="10" stroke-linecap="round" stroke-linejoin="round"/><path d="M699.712 590.249v.867l-.433 12.133c-.434 10.4-9.1 18.2-19.5 17.767-10.4-.434-18.2-9.534-17.334-19.5l.434-12.134c0-2.166.866-4.766 1.733-6.5l34.667 1.734c0 1.733.433 3.466.433 5.633m181.128 9.533-.433 11.267c-.433 9.533-8.667 16.9-18.2 16.466s-16.9-8.666-16.467-18.2l.434-11.266c0-2.167.433-4.334 1.3-6.067l32.5 1.3c.866 2.167.866 4.333.866 6.5m-137.798-68.9c9.533 1.3 16.9-8.667 13.433-18.2-1.733-5.2-4.767-9.967-9.533-13-14.734-9.1-69.767-9.967-98.8 10.833-25.567 19.067 51.566 14.3 94.9 20.367m120.032 4.767c-7.8 0-12.566-9.967-8.666-18.2 2.166-4.334 5.2-8.234 9.533-10.4 13.433-6.5 49.4-2.6 65.433 19.5 14.3 19.5-30.333 8.666-66.3 9.1" fill="#423232"/><path d="m727.875 585.482-29.033-1.3-34.667-1.3-7.8-.434m242.668 11.701-19.067-.867-32.5-1.3h-1.3" stroke="#423232" stroke-width="13.479" stroke-miterlimit="10" stroke-linecap="round" stroke-linejoin="round"/><path d="M804.157 772.845c.449 7.188-4.943 19.768-14.827 28.754-50.769-31.001-73.683-14.826-73.683-14.826-17.971-27.407-13.928-64.698 29.653-36.393 30.551 19.32 48.972 22.465 58.857 22.465" fill="#423232"/><path d="M789.331 801.599c-10.782 9.435-26.957 15.276-48.972 6.29-10.333-4.043-18.421-12.131-24.711-21.116 0 0 22.914-16.175 73.683 14.826" fill="#FE9DAB"/><path d="M812.695 771.048s-18.87 10.333-67.393-20.667c-57.958-37.291-46.277 40.885-5.392 57.508 42.682 17.522 64.698-20.667 64.248-35.044" stroke="#423232" stroke-width="13.479" stroke-miterlimit="10" stroke-linecap="round" stroke-linejoin="round"/><path d="M715.648 786.773s22.914-16.175 73.683 14.826" stroke="#423232" stroke-width="13.479" stroke-miterlimit="10" stroke-linecap="round" stroke-linejoin="round"/><path d="M1025.83 400.553c0-54.6-36.83-100.1-86.663-114.4 2.6-10.833 3.033-22.1.433-33.8-8.667-37.7-42.467-64.133-81.033-61.533-15.167.866-29.467 6.5-41.167 15.166-18.2-42.033-60.233-71.5-108.767-71.5-51.566 0-95.333 32.934-111.8 78.867-18.2-21.667-45.5-35.533-75.833-35.533-52.867 0-96.2 41.6-98.8 94.033-8.233-2.6-17.333-3.9-26.433-3.467-35.1 2.167-63.7 30.767-66.3 65.867-.867 11.7 1.3 22.967 5.633 33.367-49.4 5.2-87.967 47.233-87.967 97.933 0 38.133 21.667 71.5 53.734 87.967-13 13-21.234 30.766-21.234 50.266 0 36.4 27.734 66.734 63.267 70.634-2.167 6.933-3.033 15.166-.433 23.4 3.9 14.3 15.6 25.566 29.9 28.6 8.666 1.733 16.9.866 24.266-2.167 3.9 5.633 7.8 10.4 11.267 14.733 4.333 5.2 7.8 9.967 11.267 14.734 19.933 28.6 65.433 16.033 67.166-18.634v-.866C378 692.62 397.5 571.72 450.367 564.786c55.466-6.933 72.8 42.467 75.833 54.6 59.367-38.133-25.133-175.5 61.967-216.233 77.566-35.967 159.033 18.633 258.7 32.067 36.833 5.2 71.5-31.2 87.1-10.834 3.033 9.1 5.633 18.2 7.8 27.734 6.933 30.766 10.4 56.766-1.3 122.633 28.6-15.6 42.466-39 45.066-61.967.867-7.8.867-16.033.434-23.833 24.263-21.233 39.863-52.867 39.863-88.4" fill="#423232"/></g></svg>